<svg width="25" height="24" viewBox="0 0 25 24" fill="none" xmlns="http://www.w3.org/2000/svg">
<g clip-path="url(#clip0_55_1793)">
<path d="M12.4998 5.08203L11.4243 3.97653C8.89984 1.38153 4.27084 2.27703 2.59984 5.53953C1.81534 7.07403 1.63834 9.28953 3.07084 12.117C4.45084 14.8395 7.32184 18.1005 12.4998 21.6525C17.6778 18.1005 20.5473 14.8395 21.9288 12.117C23.3613 9.28803 23.1858 7.07403 22.3998 5.53953C20.7288 2.27703 16.0998 1.38003 13.5753 3.97503L12.4998 5.08203ZM12.4998 23.46C-10.4997 8.26203 5.41834 -3.59997 12.2358 2.67453C12.3258 2.75703 12.4143 2.84253 12.4998 2.93103C12.5845 2.84261 12.6725 2.75755 12.7638 2.67603C19.5798 -3.60297 35.4993 8.26053 12.4998 23.46Z" fill="white"/>
</g>
<defs>
<clipPath id="clip0_55_1793">
<rect width="24" height="24" fill="white" transform="translate(0.5)"/>
</clipPath>
</defs>
</svg>
