<svg width="20" height="20" viewBox="0 0 20 20" fill="none" xmlns="http://www.w3.org/2000/svg">
<mask id="mask0_213_1052" style="mask-type:alpha" maskUnits="userSpaceOnUse" x="0" y="0" width="20" height="20">
<rect width="20" height="20" fill="#D9D9D9"/>
</mask>
<g mask="url(#mask0_213_1052)">
<path d="M16.7287 16.7088C16.4872 16.9503 16.0957 16.9507 15.8537 16.7096L11.0417 11.9167C10.625 12.2639 10.1458 12.5347 9.60418 12.7292C9.06251 12.9236 8.50695 13.0208 7.93751 13.0208C6.50695 13.0208 5.29862 12.5278 4.31251 11.5417C3.3264 10.5556 2.83334 9.34722 2.83334 7.91667C2.83334 6.5 3.3264 5.295 4.31251 4.30167C5.29862 3.30889 6.50695 2.8125 7.93751 2.8125C9.35418 2.8125 10.5556 3.30556 11.5417 4.29167C12.5278 5.27778 13.0208 6.48611 13.0208 7.91667C13.0208 8.51389 12.9236 9.08333 12.7292 9.625C12.5347 10.1667 12.2708 10.6389 11.9375 11.0417L16.7287 15.8329C16.9706 16.0748 16.9706 16.4669 16.7287 16.7088ZM7.93751 11.7708C9.00695 11.7708 9.91334 11.3958 10.6567 10.6458C11.3995 9.89583 11.7708 8.98611 11.7708 7.91667C11.7708 6.84722 11.3995 5.9375 10.6567 5.1875C9.91334 4.4375 9.00695 4.0625 7.93751 4.0625C6.85418 4.0625 5.94112 4.4375 5.19834 5.1875C4.45501 5.9375 4.08334 6.84722 4.08334 7.91667C4.08334 8.98611 4.45501 9.89583 5.19834 10.6458C5.94112 11.3958 6.85418 11.7708 7.93751 11.7708Z" fill="black"/>
</g>
</svg>
