<svg width="50" height="50" viewBox="0 0 50 50" fill="none" xmlns="http://www.w3.org/2000/svg">
<g clip-path="url(#clip0_55_1911)">
<path d="M27.7 0.143769C24.7125 -0.603106 21.9375 1.65627 21.7375 4.58127C21.5125 7.86564 21.0187 10.8813 20.4 12.675C20.0094 13.8 18.9031 15.8406 17.15 17.7969C15.4094 19.7438 13.1437 21.4781 10.4906 22.2031C8.39063 22.775 6.25 24.5938 6.25 27.25V39.7531C6.25 42.3938 8.38125 44.3281 10.775 44.5813C14.1187 44.9375 15.6625 45.8781 17.2375 46.8406L17.3875 46.9344C18.2375 47.45 19.1937 48.0219 20.4187 48.4469C21.6594 48.8719 23.1094 49.125 25 49.125H35.9375C38.8656 49.125 40.9344 47.6344 41.9812 45.8C42.4872 44.9344 42.7607 43.9526 42.775 42.95C42.775 42.475 42.7031 41.975 42.5344 41.5C43.1625 40.6781 43.7219 39.6938 44.0594 38.6844C44.4031 37.6531 44.5969 36.3031 44.0719 35.0938C44.2875 34.6875 44.4469 34.2531 44.5687 33.8344C44.8094 32.9906 44.9219 32.0594 44.9219 31.1563C44.9219 30.2563 44.8094 29.3281 44.5687 28.4813C44.4594 28.0919 44.3151 27.7133 44.1375 27.35C44.6847 26.5715 45.0367 25.6729 45.164 24.7298C45.2913 23.7868 45.19 22.827 44.8687 21.9313C44.225 20.0813 42.7375 18.4938 41.1187 17.9563C38.4719 17.075 35.4844 17.0938 33.2562 17.2969C32.7937 17.3385 32.3321 17.3906 31.8719 17.4531C32.956 12.8106 32.8894 7.9735 31.6781 3.36252C31.4674 2.62373 31.0631 1.95466 30.5071 1.42449C29.9511 0.894314 29.2636 0.522292 28.5156 0.346894L27.7 0.143769ZM35.9375 46.0031H25C23.4062 46.0031 22.3031 45.7875 21.4375 45.4906C20.5594 45.1875 19.8562 44.7781 19.0125 44.2625L18.8875 44.1875C17.1531 43.1281 15.1437 41.9031 11.1062 41.475C10.0656 41.3625 9.375 40.5688 9.375 39.7563V27.25C9.375 26.4563 10.0812 25.5531 11.3125 25.2188C14.7344 24.2813 17.4906 22.1063 19.4812 19.8813C21.4656 17.6625 22.8062 15.2719 23.35 13.7C24.1094 11.5125 24.6219 8.17502 24.8562 4.79377C24.9344 3.66252 25.9812 2.93752 26.9406 3.17502L27.7594 3.38127C28.2594 3.50627 28.5656 3.82814 28.6594 4.17814C29.9356 9.04071 29.7782 14.1686 28.2062 18.9438C28.1173 19.2094 28.1013 19.494 28.1601 19.7678C28.2188 20.0417 28.3501 20.2947 28.5402 20.5005C28.7302 20.7062 28.9721 20.857 29.2405 20.9372C29.5089 21.0174 29.7938 21.024 30.0656 20.9563L30.075 20.9531L30.1187 20.9438L30.3 20.9C31.3686 20.6731 32.4496 20.5093 33.5375 20.4094C35.6094 20.2219 38.0906 20.2406 40.1312 20.9219C40.6781 21.1031 41.5375 21.8594 41.9125 22.9531C42.2469 23.9156 42.1844 25.0469 41.0812 26.1469L39.9781 27.25L41.0812 28.3563C41.2156 28.4906 41.4094 28.7969 41.5625 29.3406C41.7125 29.8625 41.7969 30.4969 41.7969 31.1563C41.7969 31.8188 41.7125 32.45 41.5625 32.975C41.4062 33.5188 41.2156 33.825 41.0812 33.9594L39.9781 35.0625L41.0812 36.1688C41.2281 36.3156 41.4219 36.7219 41.0969 37.6938C40.7582 38.6362 40.2199 39.4943 39.5187 40.2094L38.4156 41.3125L39.5187 42.4188C39.5375 42.4344 39.6469 42.575 39.6469 42.95C39.633 43.4084 39.5029 43.8557 39.2687 44.25C38.7531 45.15 37.6969 46 35.9375 46V46.0031Z" fill="#3A4ADC"/>
</g>
<defs>
<clipPath id="clip0_55_1911">
<rect width="50" height="50" fill="white"/>
</clipPath>
</defs>
</svg>
