<svg width="50" height="50" viewBox="0 0 50 50" fill="none" xmlns="http://www.w3.org/2000/svg">
<g clip-path="url(#clip0_55_1916)">
<path fill-rule="evenodd" clip-rule="evenodd" d="M32.3563 19.2062C32.5018 19.3514 32.6172 19.5238 32.696 19.7136C32.7748 19.9035 32.8153 20.107 32.8153 20.3125C32.8153 20.518 32.7748 20.7215 32.696 20.9113C32.6172 21.1012 32.5018 21.2736 32.3563 21.4187L22.9813 30.7937C22.8361 30.9392 22.6637 31.0547 22.4739 31.1335C22.284 31.2122 22.0805 31.2528 21.875 31.2528C21.6695 31.2528 21.466 31.2122 21.2762 31.1335C21.0863 31.0547 20.9139 30.9392 20.7688 30.7937L16.0813 26.1062C15.936 25.961 15.8208 25.7885 15.7421 25.5987C15.6635 25.4089 15.623 25.2054 15.623 25C15.623 24.7945 15.6635 24.5911 15.7421 24.4013C15.8208 24.2115 15.936 24.039 16.0813 23.8937C16.2265 23.7485 16.399 23.6332 16.5888 23.5546C16.7786 23.476 16.9821 23.4355 17.1875 23.4355C17.393 23.4355 17.5964 23.476 17.7862 23.5546C17.976 23.6332 18.1485 23.7485 18.2938 23.8937L21.875 27.4781L30.1438 19.2062C30.2889 19.0607 30.4613 18.9453 30.6512 18.8665C30.841 18.7877 31.0445 18.7472 31.25 18.7472C31.4555 18.7472 31.659 18.7877 31.8489 18.8665C32.0387 18.9453 32.2111 19.0607 32.3563 19.2062Z" fill="#3A4ADC"/>
<path d="M32.1031 7.85317L29.225 4.90317L31.4594 2.72192L33.4031 4.71255L36.1844 4.67817C37.3883 4.66392 38.5829 4.89054 39.6979 5.3447C40.813 5.79886 41.826 6.47138 42.6773 7.32273C43.5287 8.17408 44.2012 9.18707 44.6553 10.3021C45.1095 11.4172 45.3361 12.6118 45.3219 13.8157L45.2906 16.5969L47.2781 18.5407C48.1389 19.3818 48.8229 20.3866 49.2899 21.4958C49.7569 22.6051 49.9975 23.7965 49.9975 25C49.9975 26.2036 49.7569 27.395 49.2899 28.5043C48.8229 29.6135 48.1389 30.6183 47.2781 31.4594L45.2875 33.4032L45.3219 36.1844C45.3361 37.3883 45.1095 38.5829 44.6553 39.698C44.2012 40.813 43.5287 41.826 42.6773 42.6774C41.826 43.5287 40.813 44.2012 39.6979 44.6554C38.5829 45.1096 37.3883 45.3362 36.1844 45.3219L33.4031 45.2907L31.4594 47.2782C30.6182 48.139 29.6135 48.823 28.5042 49.29C27.395 49.757 26.2035 49.9975 25 49.9975C23.7964 49.9975 22.605 49.757 21.4958 49.29C20.3865 48.823 19.3818 48.139 18.5406 47.2782L16.5969 45.2875L13.8156 45.3219C12.6117 45.3362 11.4171 45.1096 10.3021 44.6554C9.18701 44.2012 8.17402 43.5287 7.32267 42.6774C6.47132 41.826 5.79879 40.813 5.34464 39.698C4.89048 38.5829 4.66386 37.3883 4.67811 36.1844L4.70936 33.4032L2.72186 31.4594C1.86105 30.6183 1.17705 29.6135 0.710059 28.5043C0.243067 27.395 0.00250244 26.2036 0.00250244 25C0.00250244 23.7965 0.243067 22.6051 0.710059 21.4958C1.17705 20.3866 1.86105 19.3818 2.72186 18.5407L4.71249 16.5969L4.67811 13.8157C4.66386 12.6118 4.89048 11.4172 5.34464 10.3021C5.79879 9.18707 6.47132 8.17408 7.32267 7.32273C8.17402 6.47138 9.18701 5.79886 10.3021 5.3447C11.4171 4.89054 12.6117 4.66392 13.8156 4.67817L16.5969 4.70942L18.5406 2.72192C19.3818 1.86111 20.3865 1.17711 21.4958 0.71012C22.605 0.243128 23.7964 0.00256348 25 0.00256348C26.2035 0.00256348 27.395 0.243128 28.5042 0.71012C29.6135 1.17711 30.6182 1.86111 31.4594 2.72192L29.225 4.90317C28.6749 4.34001 28.0177 3.8925 27.2921 3.58697C26.5666 3.28144 25.7873 3.12405 25 3.12405C24.2127 3.12405 23.4334 3.28144 22.7078 3.58697C21.9823 3.8925 21.3251 4.34001 20.775 4.90317L17.9 7.85317L13.775 7.80317C12.988 7.79438 12.2073 7.94294 11.4786 8.24013C10.7498 8.53733 10.0879 8.97716 9.53152 9.5338C8.97517 10.0904 8.53569 10.7526 8.23887 11.4815C7.94206 12.2104 7.7939 12.9912 7.80311 13.7782L7.85311 17.8969L4.90311 20.775C4.33995 21.3252 3.89244 21.9823 3.58691 22.7079C3.28138 23.4335 3.12399 24.2128 3.12399 25C3.12399 25.7873 3.28138 26.5666 3.58691 27.2922C3.89244 28.0178 4.33995 28.6749 4.90311 29.225L7.85311 32.1L7.80311 36.225C7.79431 37.012 7.94288 37.7928 8.24007 38.5215C8.53727 39.2502 8.9771 39.9122 9.53374 40.4685C10.0904 41.0249 10.7526 41.4643 11.4815 41.7612C12.2103 42.058 12.9912 42.2061 13.7781 42.1969L17.8969 42.1469L20.775 45.0969C21.3251 45.6601 21.9823 46.1076 22.7078 46.4131C23.4334 46.7187 24.2127 46.876 25 46.876C25.7873 46.876 26.5666 46.7187 27.2921 46.4131C28.0177 46.1076 28.6749 45.6601 29.225 45.0969L32.1 42.1469L36.225 42.1969C37.0119 42.2057 37.7927 42.0572 38.5214 41.76C39.2501 41.4628 39.9121 41.0229 40.4685 40.4663C41.0248 39.9097 41.4643 39.2475 41.7611 38.5186C42.0579 37.7897 42.2061 37.0089 42.1969 36.2219L42.1469 32.1032L45.0969 29.225C45.66 28.6749 46.1075 28.0178 46.4131 27.2922C46.7186 26.5666 46.876 25.7873 46.876 25C46.876 24.2128 46.7186 23.4335 46.4131 22.7079C46.1075 21.9823 45.66 21.3252 45.0969 20.775L42.1469 17.9L42.1969 13.775C42.2057 12.9881 42.0571 12.2073 41.7599 11.4786C41.4627 10.7499 41.0229 10.0879 40.4662 9.53158C39.9096 8.97523 39.2474 8.53575 38.5185 8.23893C37.7896 7.94212 37.0088 7.79396 36.2219 7.80317L32.1031 7.85317Z" fill="#3A4ADC"/>
</g>
<defs>
<clipPath id="clip0_55_1916">
<rect width="50" height="50" fill="white"/>
</clipPath>
</defs>
</svg>
