<svg width="50" height="50" viewBox="0 0 50 50" fill="none" xmlns="http://www.w3.org/2000/svg">
<path d="M16.6813 4.96875C13.705 5.78901 10.7489 6.68094 7.81564 7.64375C7.5478 7.73051 7.3097 7.89076 7.12848 8.10623C6.94726 8.32171 6.83021 8.58375 6.79064 8.8625C5.05939 21.8531 9.05939 31.3313 13.8313 37.575C15.8516 40.245 18.2607 42.5971 20.9781 44.5531C22.0594 45.3156 23.0156 45.8656 23.7688 46.2188C24.1438 46.3969 24.45 46.5156 24.6844 46.5875C24.7869 46.6235 24.8926 46.6496 25 46.6656C25.1062 46.6484 25.2107 46.6222 25.3125 46.5875C25.55 46.5156 25.8563 46.3969 26.2313 46.2188C26.9813 45.8656 27.9406 45.3125 29.0219 44.5531C31.7393 42.5971 34.1484 40.2449 36.1688 37.575C40.9406 31.3344 44.9406 21.8531 43.2094 8.8625C43.1702 8.58362 43.0533 8.32141 42.872 8.10587C42.6907 7.89034 42.4524 7.73019 42.1844 7.64375C40.15 6.97813 36.7156 5.89375 33.3188 4.97187C29.85 4.03125 26.6594 3.33438 25 3.33438C23.3438 3.33438 20.15 4.03125 16.6813 4.97187V4.96875ZM15.85 1.75C19.2406 0.828125 22.8438 0 25 0C27.1563 0 30.7594 0.828125 34.15 1.75C37.6188 2.6875 41.1156 3.79687 43.1719 4.46875C44.0316 4.75266 44.7938 5.27333 45.3709 5.97094C45.948 6.66855 46.3166 7.51481 46.4344 8.4125C48.2969 22.4031 43.975 32.7719 38.7313 39.6313C36.5076 42.5656 33.8562 45.1495 30.8656 47.2969C29.8316 48.0399 28.7359 48.6933 27.5906 49.25C26.7156 49.6625 25.775 50 25 50C24.225 50 23.2875 49.6625 22.4094 49.25C21.2641 48.6934 20.1685 48.0399 19.1344 47.2969C16.1439 45.1495 13.4925 42.5655 11.2688 39.6313C6.02502 32.7719 1.70314 22.4031 3.56564 8.4125C3.68341 7.51481 4.05203 6.66855 4.62913 5.97094C5.20624 5.27333 5.96843 4.75266 6.82814 4.46875C9.81312 3.49003 12.8213 2.58351 15.85 1.75Z" fill="#3A4ADC"/>
<path d="M29.6875 20.3125C29.688 21.2823 29.3877 22.2283 28.828 23.0203C28.2683 23.8122 27.4768 24.4111 26.5625 24.7344L27.7656 30.9531C27.8094 31.1793 27.8026 31.4124 27.7458 31.6356C27.6889 31.8589 27.5834 32.0668 27.4367 32.2445C27.2901 32.4222 27.106 32.5652 26.8976 32.6634C26.6892 32.7616 26.4616 32.8125 26.2313 32.8125H23.7688C23.5386 32.8121 23.3114 32.7608 23.1034 32.6624C22.8954 32.564 22.7117 32.4209 22.5654 32.2433C22.4191 32.0656 22.3139 31.8579 22.2572 31.6349C22.2005 31.4118 22.1938 31.179 22.2375 30.9531L23.4375 24.7344C22.6274 24.4479 21.9116 23.9443 21.3683 23.2786C20.825 22.6129 20.4752 21.8106 20.357 20.9595C20.2389 20.1084 20.3569 19.2412 20.6983 18.4527C21.0397 17.6641 21.5912 16.9846 22.2927 16.4883C22.9941 15.992 23.8185 15.6981 24.6757 15.6387C25.5329 15.5792 26.39 15.7565 27.1532 16.1512C27.9165 16.546 28.5565 17.1429 29.0035 17.8767C29.4504 18.6106 29.6871 19.4532 29.6875 20.3125Z" fill="#3A4ADC"/>
</svg>
