<svg width="21" height="21" viewBox="0 0 21 21" fill="none" xmlns="http://www.w3.org/2000/svg">
<mask id="mask0_172_4517" style="mask-type:alpha" maskUnits="userSpaceOnUse" x="0" y="0" width="21" height="21">
<rect x="0.5" y="0.5" width="20" height="20" fill="#D9D9D9"/>
</mask>
<g mask="url(#mask0_172_4517)">
<path d="M14.5604 18.5021C14.1702 18.8923 13.5377 18.8926 13.1471 18.5029L5.83464 11.208C5.44299 10.8172 5.44299 10.1828 5.83464 9.79205L13.1471 2.49709C13.5377 2.10736 14.1702 2.10774 14.5604 2.49793L15.0012 2.93873C15.3917 3.32926 15.3918 3.96242 15.0012 4.35295L9.56127 9.7929C9.17075 10.1834 9.17075 10.8166 9.56127 11.2071L15.0012 16.6471C15.3918 17.0376 15.3918 17.6708 15.0012 18.0613L14.5604 18.5021Z" fill="black"/>
</g>
</svg>
