<svg width="21" height="21" viewBox="0 0 21 21" fill="none" xmlns="http://www.w3.org/2000/svg">
<mask id="mask0_159_3450" style="mask-type:alpha" maskUnits="userSpaceOnUse" x="0" y="0" width="21" height="21">
<rect x="0.5" y="0.5" width="20" height="20" fill="#D9D9D9"/>
</mask>
<g mask="url(#mask0_159_3450)">
<path d="M8.11947 18.8046C7.72894 19.1951 7.09578 19.1951 6.70525 18.8046L6.26164 18.3609C5.87112 17.9704 5.87112 17.3373 6.26164 16.9467L11.7151 11.4933C12.1056 11.1027 12.1056 10.4696 11.7151 10.079L6.26164 4.62557C5.87112 4.23504 5.87112 3.60188 6.26164 3.21136L6.70525 2.76775C7.09578 2.37722 7.72894 2.37722 8.11947 2.76775L15.4308 10.079C15.8213 10.4696 15.8213 11.1027 15.4308 11.4933L8.11947 18.8046Z" fill="black"/>
</g>
</svg>
