<svg width="20" height="20" viewBox="0 0 20 20" fill="none" xmlns="http://www.w3.org/2000/svg">
<g clip-path="url(#clip0_155_3693)">
<path d="M3.5825 18.5625C3.485 19.1175 4.0325 19.5512 4.515 19.3037L10.0025 16.4837L15.4887 19.3037C15.9712 19.5512 16.5187 19.1175 16.4212 18.5637L15.3837 12.6512L19.7862 8.45621C20.1987 8.06371 19.9862 7.34622 19.4337 7.26871L13.3112 6.39872L10.5812 0.989965C10.5292 0.880326 10.4472 0.787694 10.3446 0.72283C10.2421 0.657967 10.1232 0.623535 10.0019 0.623535C9.88052 0.623535 9.76167 0.657967 9.65911 0.72283C9.55655 0.787694 9.4745 0.880326 9.42249 0.989965L6.6925 6.39996L0.569995 7.26997C0.0187453 7.34747 -0.195005 8.06496 0.216245 8.45746L4.62 12.6525L3.5825 18.565V18.5625ZM9.71375 15.1037L5.10625 17.4712L5.97374 12.525C5.99407 12.4111 5.98612 12.294 5.95059 12.1839C5.91506 12.0739 5.85305 11.9742 5.77 11.8937L2.1375 8.43121L7.2025 7.71122C7.30738 7.69538 7.40686 7.65435 7.49241 7.59165C7.57797 7.52896 7.64705 7.44645 7.69375 7.35122L10 2.77871L12.3087 7.35122C12.3554 7.44645 12.4245 7.52896 12.5101 7.59165C12.5956 7.65435 12.6951 7.69538 12.8 7.71122L17.865 8.42997L14.2325 11.8925C14.1492 11.9731 14.0871 12.0729 14.0516 12.1833C14.0161 12.2936 14.0082 12.4109 14.0287 12.525L14.8962 17.4712L10.2887 15.1037C10.1996 15.0578 10.1009 15.0338 10.0006 15.0338C9.90038 15.0338 9.80159 15.0578 9.71249 15.1037H9.71375Z" fill="black"/>
</g>
<defs>
<clipPath id="clip0_155_3693">
<rect width="20" height="20" fill="white"/>
</clipPath>
</defs>
</svg>
