<?xml version="1.0" encoding="utf-8"?>
<!-- Generator: Adobe Illustrator 24.3.0, SVG Export Plug-In . SVG Version: 6.00 Build 0)  -->
<svg version="1.0" xmlns="http://www.w3.org/2000/svg" xmlns:xlink="http://www.w3.org/1999/xlink" x="0px" y="0px"
	 viewBox="0 0 59.9 11.6" style="enable-background:new 0 0 59.9 11.6;" xml:space="preserve">
<style type="text/css">
	.st0{fill:none;stroke:#0000FF;stroke-miterlimit:10;}
</style>
<g id="Слой_1">
</g>
<g id="Слой_2">
	<g>
		<path d="M17,6.2c0,2.1-1,3.3-2.6,3.3c-0.9,0-1.6-0.4-2-1.1h-0.1v3.1h-1.7V3h1.7V4h0.1c0.4-0.7,1.1-1.2,2-1.2C16,2.9,17,4.1,17,6.2
			z M15.2,6.2c0-1.2-0.6-1.9-1.5-1.9S12.3,5,12.3,6.2s0.6,1.9,1.5,1.9C14.7,8.1,15.2,7.4,15.2,6.2z"/>
		<path d="M24.2,7.6c-0.3,1.2-1.4,2-3,2c-2,0-3.1-1.2-3.1-3.3c0-2.1,1.2-3.4,3.1-3.4c1.9,0,3,1.2,3,3.3v0.5h-4.4v0.1
			c0,1,0.6,1.6,1.5,1.6c0.7,0,1.1-0.2,1.3-0.7H24.2z M19.9,5.5h2.8c0-0.9-0.6-1.4-1.3-1.4C20.5,4.2,19.9,4.7,19.9,5.5z"/>
		<path d="M30,4.3h-2.5v5.1h-1.7V3h5.9v6.5H30V4.3z"/>
		<path d="M33.2,6.2c0-2.1,1.2-3.4,3.2-3.4s3.2,1.3,3.2,3.4c0,2.1-1.2,3.4-3.2,3.4S33.2,8.3,33.2,6.2z M37.8,6.2c0-1.2-0.5-2-1.4-2
			c-0.9,0-1.4,0.7-1.4,2c0,1.3,0.5,2,1.4,2C37.3,8.2,37.8,7.5,37.8,6.2z"/>
		<path d="M45.2,5.3c-0.1-0.6-0.6-1-1.3-1c-0.9,0-1.4,0.7-1.4,2c0,1.3,0.5,2,1.4,2c0.7,0,1.2-0.3,1.3-1h1.6
			c-0.1,1.4-1.2,2.4-2.9,2.4c-2,0-3.2-1.2-3.2-3.4c0-2.1,1.1-3.4,3.2-3.4c1.7,0,2.7,0.9,2.9,2.4H45.2z"/>
		<path d="M53.1,4.3h-1.9v5.1h-1.7V4.3h-1.9V3h5.6V4.3z"/>
		<path d="M54.4,3h1.7v1.9h1.3c1.5,0,2.5,0.9,2.5,2.3s-1,2.3-2.5,2.3h-3V3z M56.1,6.2v1.9h1c0.7,0,1.1-0.4,1.1-1c0-0.6-0.4-1-1.1-1
			H56.1z"/>
		<path class="st0" d="M4,2.6"/>
		<path class="st0" d="M0,2.6"/>
		<path d="M5.8,5.1L9.2,1h-2l-3,3.6H4L4,1l0-1H3v1H2.5V0h-1v1H1V0H0v1v8.5h4V6h0.3l3,3.5h2.1L5.8,5.1z M2.7,4.6H1.2V2.4
			c0.4-0.4,1.1-0.4,1.5,0V4.6z"/>
	</g>
</g>
</svg>
