<svg width="193" height="38" viewBox="0 0 193 38" fill="none" xmlns="http://www.w3.org/2000/svg">
<g clip-path="url(#clip0_2_2)">
<path d="M54.7746 20.2759C54.7746 26.9741 51.5526 30.8017 46.3973 30.8017C43.4975 30.8017 41.242 29.5259 39.9532 27.2931H39.631V37.181H34.1536V10.069H39.631V13.2586H39.9532C41.242 11.0259 43.4975 9.43103 46.3973 9.43103C51.5526 9.75 54.7746 13.5776 54.7746 20.2759ZM48.9749 20.2759C48.9749 16.4483 47.0417 14.2155 44.1419 14.2155C41.242 14.2155 39.631 16.4483 39.631 20.2759C39.631 24.1034 41.5642 26.3362 44.4641 26.3362C47.3639 26.3362 48.9749 24.1034 48.9749 20.2759Z" fill="black"/>
<path d="M77.9733 24.7414C77.0067 28.569 73.4624 31.1207 68.3072 31.1207C61.8631 31.1207 58.3188 27.2931 58.3188 20.5948C58.3188 13.8966 62.1853 9.75 68.3072 9.75C74.429 9.75 77.9733 13.5776 77.9733 20.2759V21.8707H63.7963V22.1897C63.7963 25.3793 65.7295 27.2931 68.6294 27.2931C70.8848 27.2931 72.1736 26.6552 72.818 25.0603H77.9733V24.7414ZM64.1185 18.0431H73.1402C73.1402 15.1724 71.207 13.5776 68.9516 13.5776C66.0517 13.8966 64.1185 15.4914 64.1185 18.0431Z" fill="black"/>
<path d="M96.6611 14.2155H88.606V30.4828H83.1285V10.069H102.139V30.8017H96.6611V14.2155Z" fill="black"/>
<path d="M106.972 20.2759C106.972 13.5776 110.838 9.43103 117.282 9.43103C123.726 9.43103 127.593 13.5776 127.593 20.2759C127.593 26.9741 123.726 31.1207 117.282 31.1207C110.838 31.1207 106.972 26.9741 106.972 20.2759ZM121.793 20.2759C121.793 16.4483 120.182 13.8965 117.282 13.8965C114.382 13.8965 112.771 16.1293 112.771 20.2759C112.771 24.4224 114.382 26.6552 117.282 26.6552C120.182 26.6552 121.793 24.4224 121.793 20.2759Z" fill="black"/>
<path d="M145.636 17.4052C145.314 15.4914 143.703 14.2155 141.447 14.2155C138.548 14.2155 136.937 16.4483 136.937 20.5948C136.937 24.7414 138.548 26.9741 141.447 26.9741C143.703 26.9741 145.314 26.0172 145.636 23.7845H150.791C150.469 28.25 146.925 31.4397 141.447 31.4397C135.003 31.4397 131.137 27.6121 131.137 20.5948C131.137 13.8966 134.681 9.75 141.447 9.75C146.925 9.75 150.147 12.6207 150.791 17.4052H145.636Z" fill="black"/>
<path d="M171.09 14.2155H164.968V30.4828H159.491V14.2155H153.369V10.069H171.412V14.2155H171.09Z" fill="black"/>
<path d="M175.279 10.069H180.756V16.1293H184.945C189.778 16.1293 193 19 193 23.4655C193 27.931 189.778 30.8017 184.945 30.8017H175.279V10.069ZM180.756 20.2759V26.3362H183.978C186.234 26.3362 187.523 25.0603 187.523 23.1466C187.523 21.2328 186.234 19.9569 183.978 19.9569H180.756V20.2759Z" fill="black"/>
<path d="M18.6878 16.7672L29.6427 3.68966H23.1987L13.5326 15.1724H12.8881V3.68966V0.5H9.66611V3.68966H8.05509V0.5H4.83306V3.68966H3.22204V0.5H0V3.68966V30.8017H12.8881V19.6379H13.8548L23.5209 30.8017H30.2871L18.6878 16.7672ZM8.6995 15.1724H3.86644V8.15517C5.15526 6.87931 7.41068 6.87931 8.6995 8.15517V15.1724Z" fill="black"/>
</g>
<defs>
<clipPath id="clip0_2_2">
<rect width="193" height="37" fill="white" transform="translate(0 0.5)"/>
</clipPath>
</defs>
</svg>
